# xmcd
#
# Track frame offsets: 
#        150
#        14542
#        42876
#        65422
#        91979
#        108908
#        138493
#        168664
#        187433
#        206960
#        257372
#        279280
#
# Disc length: 4094 seconds
#
# Revision: 0
# Processed by: cddbd v1.4PL0 Copyright (c) Steve Scherf et al.
# Submitted via: ExactAudioCopy v0.90b3
#
DISCID=b00ffc0c
DTITLE=Various Artist - Stubb's Gospel Brunch Vol 1
DYEAR=2003
DGENRE=Gospel
TTITLE0=Original Bells of Joy - Let's Talk About Jesus
TTITLE1=Gospel Stars - Somebody Bigger Than You and I
TTITLE2=Durdens - We Give the Glory
TTITLE3=Faithful Gospel Singers - Ain't No Friend
TTITLE4=Mighty Sincere Voices of Navasota - Do You Know Him
TTITLE5=Gospel Stars - I Know it was You
TTITLE6=Durdens - Wherever You Lead Me
TTITLE7=Faithful Gospel Singers - Soul Salvation
TTITLE8=Original Bells of Joy - If I Perish
TTITLE9=Mighty Sincere Voices of Navasota - When I Get the Glory
TTITLE10=Gospel Stars - Oh the Blood
TTITLE11=Faithful Gospel Singers - All in All
EXTD=
EXTT0=
EXTT1=
EXTT2=
EXTT3=
EXTT4=
EXTT5=
EXTT6=
EXTT7=
EXTT8=
EXTT9=
EXTT10=
EXTT11=
PLAYORDER=
